<svg xmlns="http://www.w3.org/2000/svg" width="512" height="512" viewBox="0 0 512 512"><defs>
  <linearGradient id="bg" x1="0" y1="0" x2="1" y2="1">
    <stop offset="0" stop-color="#4F46E5"/><stop offset="0.55" stop-color="#6D4AEF"/><stop offset="1" stop-color="#0EA5E9"/>
  </linearGradient>
  <radialGradient id="glow" cx="0.25" cy="0.15" r="0.8">
    <stop offset="0" stop-color="#fff" stop-opacity=".22"/><stop offset="1" stop-color="#fff" stop-opacity="0"/>
  </radialGradient>
  <linearGradient id="spark" x1="0" y1="0" x2="1" y2="1">
    <stop offset="0" stop-color="#FDE68A"/><stop offset="1" stop-color="#F59E0B"/>
  </linearGradient>
  <filter id="sh" x="-20%" y="-20%" width="140%" height="140%"><feDropShadow dx="0" dy="10" stdDeviation="12" flood-color="#1E1B4B" flood-opacity=".35"/></filter>
</defs><rect width="512" height="512" rx="112" fill="url(#bg)"/><rect width="512" height="512" rx="112" fill="url(#glow)"/><g filter="url(#sh)" fill="#fff">
      <rect x="138" y="112" width="84" height="288" rx="24"/>
      <rect x="238" y="112" width="136" height="80" rx="24"/>
      <rect x="238" y="208" width="136" height="80" rx="24" fill-opacity=".72"/>
    </g><path d="M404 286 C411.04 322.96 411.04 322.96 448 330 C411.04 337.04 411.04 337.04 404 374 C396.96 337.04 396.96 337.04 360 330 C396.96 322.96 396.96 322.96 404 286Z" fill="url(#spark)"/><path d="M352 372 C355.2 388.8 355.2 388.8 372 392 C355.2 395.2 355.2 395.2 352 412 C348.8 395.2 348.8 395.2 332 392 C348.8 388.8 348.8 388.8 352 372Z" fill="url(#spark)"/></svg>